<?xml version="1.0" standalone="no"?>
<!DOCTYPE svg PUBLIC "-//W3C//DTD SVG 20010904//EN"
 "http://www.w3.org/TR/2001/REC-SVG-20010904/DTD/svg10.dtd">
<svg version="1.0" xmlns="http://www.w3.org/2000/svg"
 width="720.000000pt" height="741.000000pt" viewBox="0 0 720.000000 741.000000"
 preserveAspectRatio="xMidYMid meet">

<g transform="translate(0.000000,741.000000) scale(0.100000,-0.100000)"
fill="#000000" stroke="none">
<path d="M987 7397 c-2 -7 -23 -22 -46 -32 -23 -12 -40 -26 -38 -35 1 -9 -11
-16 -36 -21 -23 -4 -53 -19 -75 -40 -20 -19 -53 -43 -72 -53 -19 -10 -40 -24
-45 -31 -6 -7 -19 -15 -30 -19 -11 -3 -39 -24 -63 -46 -23 -21 -51 -41 -61
-45 -11 -3 -22 -12 -24 -20 -3 -7 -22 -21 -41 -30 -20 -10 -36 -21 -36 -26 0
-5 -5 -9 -11 -9 -6 0 -46 -33 -88 -74 -190 -185 -235 -226 -243 -226 -4 0 -8
-4 -8 -8 0 -5 -16 -25 -35 -45 -30 -30 -35 -43 -35 -82 0 -25 2 -45 5 -45 6 0
74 60 119 106 17 16 39 33 48 37 10 3 18 13 18 21 0 8 18 29 40 47 22 18 40
39 40 46 0 7 6 10 13 7 7 -2 19 7 27 21 7 14 19 25 26 25 7 0 19 10 25 22 15
28 81 88 97 88 6 0 12 5 12 10 0 6 7 10 15 10 8 0 20 9 27 20 7 11 21 20 30
20 10 0 18 7 18 15 0 8 4 15 9 15 5 0 24 12 42 28 18 15 35 26 37 24 3 -2 14
14 26 35 19 32 28 39 68 46 32 6 49 15 53 27 3 10 19 23 35 30 17 7 30 17 30
22 0 16 28 38 48 38 19 0 72 45 72 62 0 4 11 6 25 2 14 -4 25 -2 25 4 0 6 20
20 45 32 25 12 45 26 45 31 0 15 -127 11 -133 -4z"/>
<path d="M3895 7388 c12 -39 25 -44 25 -10 0 22 -5 32 -16 32 -11 0 -14 -6 -9
-22z"/>
<path d="M3912 7230 c0 -14 2 -19 5 -12 2 6 2 18 0 25 -3 6 -5 1 -5 -13z"/>
<path d="M3940 7211 c0 -28 5 -40 18 -45 9 -3 23 -9 30 -12 7 -4 12 2 12 15 0
12 7 24 15 27 8 4 15 10 15 15 0 5 -7 9 -15 9 -8 0 -15 7 -15 15 0 10 -10 15
-30 15 -28 0 -30 -2 -30 -39z"/>
<path d="M4650 7215 c-13 -16 -6 -35 15 -35 12 0 25 21 25 41 0 14 -26 11 -40
-6z"/>
<path d="M4540 7081 c0 -6 5 -13 10 -16 6 -3 10 1 10 9 0 9 -4 16 -10 16 -5 0
-10 -4 -10 -9z"/>
<path d="M5331 7028 c-6 -16 -5 -30 5 -45 8 -12 14 -28 14 -36 0 -7 12 -20 26
-27 34 -19 41 -6 34 67 -5 57 -6 58 -38 61 -26 3 -34 -1 -41 -20z"/>
<path d="M3993 6935 c-7 -7 -15 -44 -19 -81 -6 -59 -4 -72 17 -113 13 -25 27
-49 32 -52 4 -3 1 -25 -8 -48 -8 -24 -15 -55 -15 -68 0 -23 -3 -24 -47 -22
-40 3 -48 0 -51 -15 -4 -16 -5 -16 -18 3 -9 12 -22 21 -30 21 -15 0 -17 8 -14
53 1 25 -1 27 -39 27 -32 0 -41 -4 -41 -17 0 -15 -4 -13 -20 7 -20 25 -20 25
-35 5 -14 -17 -14 -20 -1 -25 9 -3 12 -10 8 -16 -11 -16 -37 -23 -53 -14 -9 6
-21 2 -36 -12 l-23 -21 0 21 c0 14 -7 23 -17 23 -29 3 -57 5 -78 8 l-20 2 20
9 c20 9 20 9 -1 9 -25 1 -44 19 -44 43 0 10 -4 18 -10 18 -5 0 -10 7 -10 15 0
13 -4 14 -21 5 -16 -9 -26 -8 -44 4 -30 20 -35 20 -35 1 0 -8 -9 -15 -20 -15
-12 0 -20 7 -20 16 0 12 -7 14 -30 9 -21 -5 -42 -1 -69 13 -35 18 -43 19 -77
7 -42 -14 -54 -32 -33 -47 10 -6 2 -7 -24 -3 -40 6 -107 -12 -107 -30 -1 -24
-84 -49 -162 -49 -43 0 -78 -4 -78 -9 0 -5 -13 5 -30 23 -24 26 -35 31 -67 28
-38 -3 -38 -3 -38 -48 l-1 -45 -57 -5 c-32 -3 -64 -2 -72 3 -20 11 -63 -12
-44 -23 9 -6 4 -11 -17 -15 -16 -4 -57 -16 -91 -27 -54 -17 -63 -23 -63 -43 0
-13 6 -25 13 -28 10 -4 10 -7 0 -18 -11 -11 -13 -10 -13 4 0 13 -9 17 -40 17
-28 0 -40 -4 -40 -14 0 -8 -18 -23 -40 -33 -40 -18 -55 -55 -27 -66 19 -8 -13
-27 -43 -25 -24 1 -24 1 3 5 41 7 32 23 -13 23 -29 0 -40 -4 -40 -15 0 -8 5
-15 10 -15 22 0 8 -16 -35 -42 -25 -15 -49 -28 -53 -28 -4 -1 -17 -11 -29 -22
-12 -11 -29 -18 -37 -15 -9 4 -16 2 -16 -3 0 -6 -7 -10 -15 -10 -8 0 -15 -6
-15 -12 0 -7 -10 -29 -22 -48 l-21 -35 -9 34 c-9 32 -11 33 -46 28 -20 -3 -31
-3 -24 0 7 3 12 22 12 44 l0 39 -50 0 -50 0 0 -40 c0 -33 3 -40 20 -40 27 0
25 -12 -5 -38 -16 -14 -39 -22 -60 -22 -19 0 -35 -4 -35 -10 0 -5 4 -10 9 -10
5 0 28 -18 51 -40 23 -22 46 -40 50 -40 5 0 1 -19 -10 -42 -10 -22 -16 -46
-14 -52 2 -6 -9 -19 -26 -28 -44 -25 -39 -42 10 -34 32 5 40 3 40 -9 0 -8 11
-22 25 -31 29 -19 33 -44 8 -44 -14 0 -15 -2 -4 -12 11 -10 14 -10 18 0 10 26
21 10 25 -33 2 -31 -1 -46 -11 -50 -10 -4 -11 -8 -1 -20 16 -20 5 -45 -19 -45
-13 0 -27 -12 -36 -30 -9 -16 -19 -30 -23 -30 -11 0 -12 -69 -1 -76 16 -10 9
-21 -20 -34 -16 -6 -31 -20 -34 -31 -4 -14 -14 -19 -39 -20 -18 0 -42 -4 -53
-9 -17 -7 -16 -9 10 -10 l30 -1 -32 -16 c-37 -19 -40 -29 -17 -54 15 -16 13
-19 -26 -44 -30 -19 -40 -31 -35 -44 3 -11 -4 -27 -21 -44 -29 -29 -25 -43 14
-59 l27 -11 -28 -11 c-19 -7 -27 -16 -24 -27 3 -11 0 -16 -7 -13 -6 2 -17 -10
-24 -28 -11 -30 -13 -31 -28 -16 -13 13 -21 14 -34 6 -25 -16 -53 -3 -45 22 5
14 2 20 -9 20 -12 0 -16 10 -16 40 0 22 -4 40 -10 40 -5 0 -10 -22 -10 -49 0
-56 -19 -82 -45 -61 -12 10 -15 10 -15 -4 0 -9 7 -16 15 -16 19 0 19 -20 -1
-48 -16 -23 -12 -64 12 -126 5 -12 0 -16 -20 -16 -23 0 -26 -4 -26 -36 0 -20
-7 -60 -15 -89 -12 -40 -13 -59 -5 -81 8 -20 8 -30 1 -32 -12 -4 -15 -158 -3
-164 4 -1 15 -20 24 -40 14 -31 15 -38 4 -38 -18 0 -37 -56 -30 -85 4 -16 -1
-30 -14 -43 -44 -44 -67 -98 -64 -146 3 -33 8 -46 19 -46 13 0 13 -3 -1 -25
-9 -13 -16 -31 -16 -39 0 -8 -6 -16 -12 -19 -19 -7 4 -41 31 -45 19 -3 21 -10
21 -67 0 -47 -4 -64 -15 -69 -8 -3 -15 -15 -15 -26 0 -11 -7 -23 -15 -26 -10
-4 -15 -20 -15 -45 0 -21 -5 -39 -10 -39 -6 0 -9 -42 -8 -112 1 -79 -2 -121
-12 -138 -8 -14 -13 -50 -12 -83 1 -41 -4 -70 -18 -98 -23 -43 -17 -69 20 -89
11 -6 20 -17 20 -25 0 -8 7 -15 15 -15 9 0 15 -9 15 -24 0 -13 3 -31 6 -40 4
-12 0 -16 -15 -16 -26 0 -27 -15 -1 -42 25 -27 25 -38 0 -38 -24 0 -28 -45 -5
-54 25 -9 19 -136 -6 -136 -5 0 -9 25 -9 55 l0 55 -80 0 -80 0 0 -27 c-1 -27
-1 -27 -15 -9 -9 11 -15 41 -15 68 0 26 -4 48 -10 48 -5 0 -10 -22 -10 -48 0
-27 -6 -57 -15 -68 -13 -17 -14 -13 -15 49 l0 67 -30 0 c-28 0 -30 2 -30 40 0
22 -4 40 -10 40 -5 0 -10 -18 -10 -40 0 -37 -2 -40 -26 -40 l-26 0 3 -117 c6
-203 1 -283 -16 -283 -8 0 -15 -4 -15 -10 0 -5 18 -10 40 -10 l40 0 0 -40 c0
-40 0 -40 40 -41 22 -1 45 -2 52 -3 9 -1 11 24 9 92 -2 78 0 92 13 92 12 0 16
10 16 40 0 29 4 40 15 40 11 0 15 -11 15 -40 l0 -40 40 0 40 0 0 40 c0 29 4
40 15 40 11 0 15 -11 15 -40 l0 -40 50 0 50 0 0 40 c0 29 4 40 15 40 11 0 15
-11 15 -40 0 -29 4 -40 15 -40 11 0 15 -11 15 -40 0 -29 -4 -40 -15 -40 -11 0
-15 -11 -15 -40 0 -29 4 -40 15 -40 11 0 15 -11 15 -40 0 -38 2 -40 30 -40 29
0 30 -2 29 -42 -2 -30 -3 -35 -6 -15 -4 24 -8 27 -44 27 -28 0 -39 4 -39 15 0
11 -11 15 -40 15 l-40 0 0 -80 0 -80 -40 0 c-36 0 -40 3 -40 25 0 23 -4 25
-40 25 -36 0 -40 -2 -40 -25 0 -22 -4 -25 -40 -25 l-40 0 0 -45 0 -45 40 0
c33 0 40 -3 40 -20 0 -17 -7 -20 -39 -20 -42 0 -51 -13 -51 -76 0 -34 -22 -70
-37 -61 -6 4 -8 28 -5 57 l5 50 -41 0 c-26 0 -42 -5 -46 -15 -9 -26 -26 -17
-26 14 0 20 -6 32 -19 36 -10 3 -26 14 -36 25 -18 20 -17 20 29 20 l47 0 -3
38 c-2 20 -9 38 -15 38 -7 1 -34 2 -60 3 -25 0 -43 4 -39 8 4 4 27 6 51 4 59
-3 62 21 5 38 -34 10 -40 16 -40 39 -1 25 -2 25 -14 10 -7 -10 -18 -18 -25
-18 -6 0 -20 -6 -31 -12 -15 -10 -22 -10 -32 0 -9 9 -9 12 3 12 15 0 49 48 49
69 0 6 -8 11 -18 11 -15 0 -17 6 -14 38 3 20 9 40 14 43 13 8 -103 49 -141 49
-21 0 -31 -5 -31 -15 0 -11 -11 -15 -40 -15 -22 0 -40 -4 -40 -10 0 -5 16 -10
37 -10 35 0 36 0 18 -20 -10 -11 -26 -22 -36 -25 -16 -6 -19 -17 -19 -86 l0
-79 40 0 40 0 0 50 c0 55 6 59 43 30 18 -15 27 -17 30 -8 3 8 6 6 6 -4 1 -13
-7 -18 -24 -18 -25 0 -25 -1 -25 -80 0 -64 3 -80 15 -80 11 0 15 -11 15 -40 0
-22 5 -40 10 -40 6 0 10 -7 10 -15 0 -8 5 -15 10 -15 6 0 13 7 16 15 4 8 17
15 30 15 18 0 24 -5 24 -21 0 -12 -6 -27 -13 -33 -9 -8 -11 -37 -9 -98 3 -85
4 -88 27 -88 46 0 62 -82 18 -88 -16 -2 -21 1 -19 15 2 10 1 12 -1 6 -3 -9
-27 -13 -73 -13 -61 0 -68 -2 -73 -22 -5 -18 -8 -19 -22 -8 -13 11 -13 15 -3
22 8 6 -20 7 -69 3 l-83 -7 0 46 c0 40 -3 46 -21 46 -20 0 -21 4 -15 40 5 32
3 40 -9 40 -11 0 -15 11 -15 40 0 30 4 40 16 40 21 0 13 20 -14 38 l-22 14 0
-971 0 -971 2815 0 2815 0 0 65 c0 51 -3 65 -15 65 -11 0 -15 11 -15 40 0 29
4 40 15 40 11 0 15 11 15 40 0 29 -4 40 -15 40 -10 0 -15 11 -15 35 0 34 -1
35 -42 36 -24 1 -33 4 -20 6 21 4 22 9 20 86 -1 45 -3 63 -5 41 -4 -45 -17
-54 -80 -54 -30 0 -31 2 -35 48 l-3 47 48 -3 47 -4 0 41 c0 40 1 41 35 41 l35
0 0 50 0 50 51 0 c49 0 79 -15 79 -39 0 -6 7 -11 15 -11 9 0 27 -11 41 -25 23
-23 32 -25 103 -24 l79 1 17 39 c20 44 30 49 38 19 7 -26 27 -26 34 0 3 11 9
20 14 20 5 0 9 9 9 19 0 10 7 21 15 25 19 7 19 50 0 66 -26 21 -18 69 16 101
26 24 40 29 80 29 27 0 49 -4 49 -10 0 -6 33 -10 80 -10 l80 0 0 -30 c0 -16
-4 -30 -10 -30 -15 0 -12 -70 4 -86 8 -8 29 -14 46 -14 17 0 43 -6 59 -14 30
-16 59 -46 44 -46 -5 0 -14 -17 -19 -38 -6 -24 -15 -37 -25 -36 -8 1 -15 -6
-15 -15 -1 -63 -4 -71 -29 -71 -22 0 -25 -4 -25 -40 0 -22 5 -40 10 -40 6 0
10 -7 10 -15 0 -9 7 -18 15 -21 9 -4 15 -19 15 -39 0 -24 5 -35 19 -40 10 -3
26 -14 36 -25 10 -11 26 -20 37 -20 14 0 18 -8 18 -40 0 -29 4 -40 15 -40 12
0 15 -16 15 -80 0 -64 -3 -80 -15 -80 -9 0 -15 -9 -15 -25 0 -24 2 -25 70 -25
66 0 70 1 76 25 3 14 10 25 14 25 10 0 150 134 150 144 0 13 35 44 55 48 14 2
20 11 20 30 1 34 15 50 69 78 28 14 48 33 54 49 5 15 16 34 25 42 8 8 22 31
32 49 10 19 23 38 29 42 17 11 21 1358 4 1358 -9 0 -9 3 0 12 7 7 12 40 12 78
0 54 -3 67 -20 78 -26 16 -25 47 2 66 l22 16 -28 0 c-25 0 -27 3 -22 25 7 26
0 31 -24 15 -9 -5 -19 -5 -27 2 -17 14 -16 28 2 28 8 0 15 9 15 19 0 10 7 21
15 25 8 3 15 12 15 21 0 8 5 15 10 15 6 0 10 6 10 14 0 8 7 16 15 20 23 8 19
72 -7 106 -21 29 -21 30 -3 50 22 24 35 163 16 174 -14 9 -15 53 -1 61 6 4 10
118 10 311 0 196 -4 304 -10 304 -5 0 -10 -18 -10 -40 0 -40 0 -40 -38 -40
-32 0 -41 5 -50 25 -10 22 -14 24 -32 13 -11 -7 -20 -18 -20 -25 0 -7 -7 -13
-15 -13 -11 0 -15 11 -15 40 0 36 -2 40 -25 40 -21 0 -25 -5 -25 -30 0 -28 -2
-30 -40 -30 -22 0 -40 -4 -40 -10 0 -5 -18 -10 -40 -10 -33 0 -40 -3 -40 -20
0 -11 -4 -20 -8 -20 -20 0 -29 25 -24 70 3 33 1 50 -7 50 -6 0 -11 -17 -11
-40 0 -52 -19 -52 -44 0 -22 47 -29 49 -44 15 -15 -32 -29 -32 -44 0 -14 32
-22 31 -37 -2 -8 -17 -15 -23 -19 -16 -10 15 -77 29 -122 25 -29 -2 -38 -9
-49 -34 -11 -24 -11 -33 -3 -36 18 -6 14 -39 -5 -47 -10 -3 -19 -1 -21 5 -7
20 -36 43 -40 31 -4 -13 -82 -15 -82 -2 0 6 -19 12 -42 14 l-43 4 43 1 42 2 0
40 c0 38 2 40 30 40 28 0 30 -2 30 -40 0 -22 5 -40 10 -40 6 0 10 18 10 40 0
29 4 40 15 40 8 0 28 14 43 30 18 18 39 30 55 30 14 0 29 5 32 10 17 28 95 -5
95 -40 0 -6 18 -10 40 -10 33 0 40 3 40 20 0 17 -7 20 -40 20 -33 0 -40 3 -40
20 0 18 -7 20 -80 20 l-80 0 0 30 c0 22 -5 30 -17 30 -10 0 -28 3 -40 6 -17 5
-23 2 -23 -11 0 -17 -55 -75 -71 -75 -5 0 -9 -18 -9 -40 l0 -40 -44 0 c-34 0
-47 5 -60 23 -15 22 -16 22 -31 2 -15 -19 -15 -20 9 -23 23 -3 26 -8 26 -43 0
-28 -4 -39 -15 -39 -8 0 -15 -4 -15 -10 0 -15 -19 -12 -36 5 -9 9 -15 30 -14
53 3 57 2 59 -28 70 -26 9 -31 6 -66 -34 -30 -34 -42 -42 -52 -33 -7 6 -12 21
-11 32 2 17 -3 22 -23 22 -19 0 -25 -5 -25 -22 0 -11 -4 -25 -9 -30 -5 -4 -6
14 -2 43 3 28 2 62 -2 75 l-9 23 -12 -23 c-9 -16 -10 -45 -6 -97 7 -69 6 -74
-12 -74 -22 0 -43 -37 -43 -77 0 -21 -2 -24 -15 -13 -10 8 -15 30 -15 61 0 41
-4 51 -25 65 -25 16 -34 44 -15 44 6 0 10 18 10 40 0 29 4 40 15 40 11 0 15
11 15 40 0 29 -4 40 -15 40 -11 0 -15 -11 -15 -40 0 -29 -4 -40 -15 -40 -11 0
-15 -11 -15 -40 0 -33 -3 -40 -20 -40 -16 0 -20 7 -20 34 0 45 19 96 36 96 24
0 15 30 -12 40 -33 13 -54 13 -54 0 0 -5 7 -10 16 -10 13 0 11 -6 -10 -26 -27
-27 -30 -35 -26 -67 1 -11 -7 -21 -19 -24 -12 -3 -21 -14 -21 -24 0 -30 -14
-22 -34 21 -13 28 -28 42 -45 46 -14 3 -34 8 -43 11 -10 2 -18 0 -18 -6 0 -6
8 -11 18 -11 20 0 57 -71 49 -94 -9 -22 -107 -23 -107 -1 0 8 5 15 10 15 6 0
10 18 10 40 0 22 -4 40 -10 40 -5 0 -10 -18 -10 -40 0 -36 -2 -40 -25 -40 -22
0 -25 -4 -25 -40 0 -29 4 -40 15 -40 11 0 15 -11 15 -40 0 -22 5 -40 10 -40 6
0 10 -7 10 -15 0 -11 -11 -15 -40 -15 -29 0 -40 4 -40 15 0 8 5 15 10 15 6 0
10 18 10 40 0 22 -4 40 -10 40 -5 0 -10 7 -10 15 0 16 -9 19 -34 9 -12 -4 -16
-20 -16 -54 0 -54 -6 -58 -72 -52 -37 4 -38 5 -38 43 0 34 3 39 23 39 21 1 21
1 4 15 -18 13 -18 14 3 25 12 6 46 14 75 17 l53 6 0 102 c0 80 4 108 17 129
21 31 31 33 45 6 6 -11 17 -20 25 -20 8 0 15 9 15 20 0 11 -4 20 -10 20 -5 0
-10 18 -10 40 l0 40 -40 0 c-26 0 -40 -5 -40 -13 0 -7 -8 -20 -17 -28 -10 -9
-24 -25 -32 -37 -8 -11 -25 -23 -38 -27 -13 -3 -34 -22 -45 -42 -12 -20 -24
-31 -26 -25 -2 7 -12 12 -22 12 -15 0 -19 -12 -25 -80 -5 -56 -11 -80 -20 -80
-7 0 -15 -6 -18 -12 -8 -26 -37 13 -37 51 0 38 -23 82 -36 69 -3 -4 -6 -48 -5
-98 l2 -90 -40 0 c-40 0 -41 1 -41 35 0 26 -3 33 -15 29 -8 -4 -18 -17 -21
-30 -4 -15 -16 -27 -33 -31 -14 -3 -31 -13 -37 -21 -14 -19 -34 -7 -34 19 0
11 -6 27 -14 35 -16 16 -86 19 -86 4 0 -19 -27 -10 -37 12 -7 17 -5 30 9 55
12 19 17 40 13 53 -4 11 -2 20 4 20 6 0 11 7 11 15 0 18 26 9 34 -11 8 -20 -3
-44 -20 -44 -8 0 -14 -9 -14 -20 0 -11 7 -20 15 -20 8 0 15 -4 15 -10 0 -5 11
-10 25 -10 14 0 25 5 25 10 0 6 -7 10 -15 10 -9 0 -15 9 -15 21 0 17 5 20 23
16 12 -3 54 -9 93 -13 70 -6 71 -6 76 18 3 15 -2 34 -13 47 -10 11 -22 44 -28
73 -7 28 -21 66 -32 85 -11 18 -19 39 -16 46 2 6 -2 20 -11 29 -14 16 -12 19
20 32 30 13 37 23 48 63 7 26 17 52 21 57 14 15 10 59 -6 80 -21 27 -19 33 13
50 15 8 21 15 15 16 -7 0 -13 7 -13 15 0 10 -8 13 -27 9 -16 -2 -34 0 -42 5
-13 8 -13 12 0 27 10 13 11 18 2 21 -10 4 -10 9 0 23 9 15 9 22 -1 32 -6 6
-12 31 -12 55 0 24 -2 43 -4 43 -2 0 -20 -7 -40 -15 l-36 -15 0 30 c0 29 13
40 25 20 3 -5 19 -10 35 -10 24 0 31 5 36 27 5 17 3 28 -4 31 -7 2 -12 24 -12
53 0 36 -4 49 -14 49 -8 0 -27 11 -42 25 l-27 25 41 0 40 0 4 52 c2 38 -3 64
-18 96 -12 25 -19 53 -17 63 4 12 -2 22 -18 29 -20 9 -24 19 -25 56 -1 25 -6
50 -12 56 -7 7 -12 28 -12 48 0 19 -7 46 -17 59 -18 27 -19 91 -2 123 10 18 8
25 -12 42 -30 25 -58 98 -40 104 6 2 11 11 11 19 0 13 -3 13 -15 3 -12 -10
-16 -9 -21 4 -3 9 -3 24 1 34 4 9 9 36 11 60 2 23 5 46 6 50 4 16 -15 118 -29
151 -8 20 -23 43 -34 51 -10 8 -21 32 -23 54 -3 21 -9 43 -15 50 -5 6 -12 27
-16 46 -4 19 -16 51 -26 70 -20 37 -24 66 -10 74 9 6 25 65 22 81 -4 19 10 75
19 75 5 0 13 -12 16 -27 6 -23 8 -24 19 -10 8 11 26 17 52 17 85 0 138 114
102 219 -10 28 -15 31 -39 26 -16 -3 -31 -2 -35 4 -3 6 -1 11 4 11 17 0 13 73
-5 98 -14 20 -22 22 -54 17 -36 -6 -38 -5 -49 26 -13 39 -15 99 -2 99 5 0 13
9 16 20 3 11 17 23 31 26 32 8 30 24 -6 62 -33 35 -37 58 -15 88 23 30 19 69
-9 82 -22 10 -24 8 -30 -28 -7 -43 -36 -70 -74 -70 -12 0 -25 -7 -29 -16 -5
-15 25 -84 38 -84 3 0 12 12 19 28 l14 27 4 -24 c2 -13 -2 -27 -8 -31 -7 -4
-10 -25 -9 -51 3 -40 1 -46 -28 -64 -31 -19 -44 -45 -23 -45 6 0 5 -8 -2 -20
-29 -46 -68 -12 -68 59 0 23 -4 41 -10 41 -5 0 -10 -7 -10 -16 0 -10 -7 -14
-22 -12 -28 4 -36 28 -9 28 14 0 23 8 27 25 7 27 18 32 30 13 5 -7 11 -5 21 7
20 28 16 35 -17 35 -21 0 -30 5 -30 16 0 25 -25 10 -29 -17 -6 -42 -39 -51
-70 -20 -11 11 -32 21 -48 23 l-28 3 38 38 c40 40 57 46 57 22 0 -20 19 -19
27 1 4 10 -1 22 -10 29 -10 7 -17 24 -17 39 0 24 -3 26 -40 26 -36 0 -40 -2
-40 -25 0 -32 -12 -32 -51 3 l-31 28 27 -1 c42 0 53 26 27 63 -12 16 -22 37
-22 46 0 9 -7 19 -15 22 -29 11 -15 24 28 24 l42 1 -27 15 c-19 10 -28 23 -28
39 0 16 -6 25 -15 25 -8 0 -15 5 -15 10 0 15 -73 11 -87 -5z m-1273 -370 c0
-11 -11 -15 -40 -15 -48 0 -54 17 -7 23 17 2 35 5 40 5 4 1 7 -5 7 -13z m320
5 c0 -5 -5 -10 -11 -10 -5 0 -7 5 -4 10 3 6 8 10 11 10 2 0 4 -4 4 -10z m1060
-70 c13 -9 13 -11 0 -19 -17 -12 -30 -5 -30 15 0 16 9 18 30 4z m405 -200 c3
-5 -1 -10 -9 -10 -8 0 -16 -9 -18 -21 -3 -18 -5 -19 -23 -5 l-20 15 20 15 c23
18 41 20 50 6z m79 -265 c-4 -8 -10 -15 -15 -15 -5 0 -9 7 -9 15 0 8 7 15 15
15 9 0 12 -6 9 -15z m-2884 -15 c0 -5 -4 -10 -10 -10 -5 0 -10 5 -10 10 0 6 5
10 10 10 6 0 10 -4 10 -10z m2700 -40 c0 -5 -4 -10 -10 -10 -5 0 -10 5 -10 10
0 6 5 10 10 10 6 0 10 -4 10 -10z m-2657 -285 c-5 -16 -33 -21 -33 -7 0 13 22
32 31 26 5 -2 6 -11 2 -19z m-429 -779 c-3 -8 -12 -12 -20 -9 -21 8 -17 23 6
23 13 0 18 -5 14 -14z m3238 -274 c1 -37 1 -37 8 8 l7 45 1 -42 c1 -23 6 -43
12 -45 6 -2 6 -17 -1 -43 l-12 -40 -15 43 c-11 28 -22 42 -34 42 -11 0 -18 7
-18 20 0 13 5 18 15 14 11 -5 15 1 15 21 0 40 20 19 22 -23z m-36 -109 c-11
-11 -17 4 -9 23 7 18 8 18 11 1 2 -10 1 -21 -2 -24z m32 -71 c8 -20 29 -46 46
-57 28 -18 30 -24 27 -67 -1 -30 2 -48 8 -48 6 0 11 6 11 14 0 7 9 16 19 19
13 3 22 -3 30 -21 10 -21 9 -28 -7 -46 -36 -41 -14 -206 28 -206 14 0 19 -10
22 -42 3 -24 8 -50 12 -59 4 -9 -1 -24 -14 -39 -13 -14 -20 -37 -20 -62 0 -23
-5 -38 -12 -38 -6 0 -22 -10 -35 -22 -21 -20 -22 -23 -6 -40 15 -17 15 -18 0
-18 -10 0 -17 5 -17 11 0 5 -5 7 -12 3 -9 -6 -9 -9 0 -12 7 -2 12 -13 12 -23
0 -16 -3 -18 -17 -10 -13 7 -23 5 -36 -6 -18 -17 -49 -36 -83 -52 -12 -5 -28
-23 -35 -40 -19 -42 -36 -39 -35 7 2 114 -5 181 -19 196 -8 8 -15 26 -15 40 0
22 -4 26 -29 26 -59 0 -73 48 -36 120 l14 25 10 -25 c11 -28 10 -39 15 130 2
54 8 85 23 111 12 20 26 63 33 95 13 70 29 114 41 114 5 0 15 14 24 30 21 40
33 38 53 -8z m-3488 -336 c0 -3 -4 -8 -10 -11 -5 -3 -10 -1 -10 4 0 6 5 11 10
11 6 0 10 -2 10 -4z m3733 -243 c-7 -2 -19 -2 -25 0 -7 3 -2 5 12 5 14 0 19
-2 13 -5z m-61 -95 c-9 -9 -12 -7 -12 12 0 19 3 21 12 12 9 -9 9 -15 0 -24z
m-5 -53 c20 -20 12 -28 -21 -19 -26 6 -32 15 -19 27 10 11 23 8 40 -8z m-1547
-355 c0 -21 -24 -28 -35 -10 -8 14 3 30 21 30 8 0 14 -9 14 -20z m3160 -11 c0
-5 -4 -9 -10 -9 -5 0 -10 7 -10 16 0 8 5 12 10 9 6 -3 10 -10 10 -16z m-320
-79 c0 -33 -3 -40 -20 -40 -14 0 -20 7 -20 24 0 13 -3 31 -6 40 -5 12 0 16 20
16 24 0 26 -4 26 -40z m415 -20 c-3 -5 -13 -10 -21 -10 -8 0 -14 5 -14 10 0 6
9 10 21 10 11 0 17 -4 14 -10z m125 -10 c0 -5 -7 -10 -16 -10 -8 0 -12 5 -9
10 3 6 10 10 16 10 5 0 9 -4 9 -10z m108 -27 c-5 -25 -28 -28 -28 -4 0 12 6
21 16 21 9 0 14 -7 12 -17z m-508 -13 c0 -5 18 -10 40 -10 l40 0 0 -65 c0 -53
-3 -63 -15 -59 -10 4 -15 20 -15 45 0 35 -3 39 -25 39 -14 0 -25 5 -25 10 0 6
-7 10 -15 10 -8 0 -15 9 -15 20 0 11 7 20 15 20 8 0 15 -4 15 -10z m-720 -35
c0 -11 -11 -15 -40 -15 -29 0 -40 4 -40 15 0 11 11 15 40 15 29 0 40 -4 40
-15z m160 0 c0 -9 -9 -15 -21 -15 -18 0 -19 2 -9 15 7 8 16 15 21 15 5 0 9 -7
9 -15z m880 -5 c0 -11 -6 -20 -14 -20 -18 0 -29 16 -21 30 11 18 35 11 35 -10z
m480 5 c0 -8 -7 -15 -15 -15 -16 0 -20 12 -8 23 11 12 23 8 23 -8z m-850 -1
c0 -3 -7 -12 -15 -20 -13 -14 -15 -13 -15 5 0 12 6 21 15 21 8 0 15 -3 15 -6z
m500 -4 c0 -5 -4 -10 -10 -10 -5 0 -10 5 -10 10 0 6 5 10 10 10 6 0 10 -4 10
-10z m-910 -14 c0 -3 -4 -8 -10 -11 -5 -3 -10 -1 -10 4 0 6 5 11 10 11 6 0 10
-2 10 -4z m1163 -3 c-13 -2 -33 -2 -45 0 -13 2 -3 4 22 4 25 0 35 -2 23 -4z
m207 -8 c-7 -8 -16 -15 -21 -15 -5 0 -9 7 -9 15 0 9 9 15 21 15 18 0 19 -2 9
-15z m-910 -45 c0 -15 -7 -20 -25 -20 -41 0 -30 37 13 39 6 1 12 -8 12 -19z
m-468 -18 c-7 -2 -12 -17 -12 -33 0 -27 -2 -29 -20 -19 -14 8 -26 8 -40 0 -18
-10 -20 -8 -20 21 0 32 0 32 21 13 21 -19 21 -19 43 7 11 15 25 24 31 21 5 -3
4 -7 -3 -10z m68 8 c0 -5 -5 -10 -11 -10 -5 0 -7 5 -4 10 3 6 8 10 11 10 2 0
4 -4 4 -10z m819 -19 c25 -34 26 -45 7 -61 -20 -16 -10 -37 25 -49 23 -8 29
-16 29 -40 0 -17 -4 -31 -9 -31 -4 0 -20 -9 -35 -21 -23 -18 -25 -23 -12 -33
42 -33 75 -156 42 -156 -8 0 -22 -3 -32 -7 -11 -4 -15 -3 -10 5 4 6 -3 16 -15
23 -20 10 -21 9 -15 -15 5 -21 3 -26 -13 -26 -27 0 -55 -30 -42 -43 18 -18 14
-97 -4 -97 -8 0 -15 -6 -15 -14 0 -8 -10 -16 -22 -18 -20 -3 -88 -78 -88 -98
0 -5 7 -15 15 -24 8 -8 15 -22 15 -30 0 -9 8 -16 20 -16 13 0 20 7 20 19 0 26
27 48 42 33 7 -7 20 -12 29 -12 14 0 18 14 24 80 5 58 11 80 21 80 10 0 14 12
14 40 0 37 -2 40 -27 40 -25 1 -26 2 -11 13 17 13 49 15 84 4 19 -7 20 -12 13
-65 -5 -34 -4 -61 2 -66 5 -6 9 -18 9 -27 0 -10 9 -33 20 -51 16 -27 17 -40
10 -73 -13 -55 -13 -55 15 -55 14 0 25 4 25 10 0 5 20 15 45 21 50 13 53 16
28 35 -17 13 -17 13 2 14 12 0 27 -12 38 -31 13 -23 23 -30 37 -26 13 3 20 0
20 -9 0 -8 -9 -14 -20 -14 -14 0 -22 -11 -31 -39 -9 -31 -18 -41 -43 -48 -24
-7 -31 -14 -31 -33 0 -23 -4 -25 -45 -26 -24 -1 -46 -6 -48 -12 -2 -6 -17 -8
-39 -5 -24 4 -38 2 -45 -8 -7 -11 -11 -11 -15 -1 -2 6 -11 12 -18 12 -7 0 -15
9 -18 21 -7 25 -28 21 -43 -9 -7 -14 -14 -18 -24 -12 -12 7 -11 12 4 29 10 11
18 35 18 54 0 30 5 37 42 55 23 12 33 21 24 21 -12 1 -18 9 -18 24 0 37 -13
49 -36 32 -10 -8 -27 -15 -36 -15 -11 0 -18 -8 -18 -19 0 -36 -54 -56 -55 -20
-2 30 -19 74 -37 94 -12 13 -17 28 -13 42 3 13 1 23 -5 23 -5 0 -10 6 -10 13
0 14 -52 34 -99 39 -34 4 -40 28 -7 28 24 0 26 3 26 43 0 40 -2 44 -32 52 -26
8 -33 15 -32 35 1 14 -1 27 -5 30 -15 12 -30 74 -20 81 6 3 11 45 12 98 l2 91
38 0 c26 0 37 -4 37 -15 0 -8 5 -15 10 -15 6 0 10 18 10 40 0 38 1 40 31 40
19 0 43 10 61 25 20 17 37 24 50 19 14 -4 21 0 25 15 6 23 43 39 95 40 30 1
41 -5 57 -28z m176 -24 c14 -27 15 -38 6 -55 -7 -13 -16 -20 -21 -17 -5 3 -21
-2 -36 -12 -25 -16 -27 -16 -40 2 -8 10 -14 24 -14 31 0 6 -7 14 -15 18 -13 5
-13 9 -3 26 7 11 18 20 25 20 7 0 13 5 13 10 0 6 15 10 33 10 28 0 37 -6 52
-33z m45 23 c0 -5 -2 -10 -4 -10 -3 0 -8 5 -11 10 -3 6 -1 10 4 10 6 0 11 -4
11 -10z m-2020 -52 c0 -13 8 -18 30 -18 17 0 30 -4 30 -8 0 -20 -52 -52 -83
-52 -28 0 -36 -5 -50 -35 -19 -40 -32 -44 -47 -16 -13 26 -13 31 3 31 8 0 20
11 27 25 7 14 17 25 22 25 4 0 8 12 8 26 0 30 40 69 52 51 4 -7 8 -20 8 -29z
m180 22 c0 -5 -4 -10 -10 -10 -5 0 -10 5 -10 10 0 6 5 10 10 10 6 0 10 -4 10
-10z m237 -32 c-3 -8 -6 -5 -6 6 -1 11 2 17 5 13 3 -3 4 -12 1 -19z m83 -18
c0 -5 -4 -10 -9 -10 -12 0 -46 -58 -55 -94 l-7 -28 -19 25 c-24 30 -25 37 -5
37 8 0 19 17 26 40 11 34 16 40 41 40 15 0 28 -4 28 -10z m100 6 c0 -3 -4 -8
-10 -11 -5 -3 -10 -1 -10 4 0 6 5 11 10 11 6 0 10 -2 10 -4z m377 -58 c-2 -13
-4 -3 -4 22 0 25 2 35 4 23 2 -13 2 -33 0 -45z m-1169 11 c17 -26 12 -31 -28
-27 -31 3 -31 3 -13 25 22 28 25 28 41 2z m868 -29 c17 0 19 -16 3 -26 -16 -9
-43 21 -33 37 6 10 9 10 12 1 2 -7 10 -12 18 -12z m-59 -142 c-2 -13 -4 -3 -4
22 0 25 2 35 4 23 2 -13 2 -33 0 -45z m-737 -27 c0 -6 -4 -13 -10 -16 -5 -3
-10 1 -10 9 0 9 5 16 10 16 6 0 10 -4 10 -9z m-3940 -87 c0 -9 -5 -14 -12 -12
-18 6 -21 28 -4 28 9 0 16 -7 16 -16z m4447 -46 c-2 -13 -4 -3 -4 22 0 25 2
35 4 23 2 -13 2 -33 0 -45z m-784 25 c-13 -2 -33 -2 -45 0 -13 2 -3 4 22 4 25
0 35 -2 23 -4z m-3663 -163 c0 -29 -4 -40 -15 -40 -11 0 -15 11 -15 40 0 29 4
40 15 40 11 0 15 -11 15 -40z m4407 18 c-3 -8 -6 -5 -6 6 -1 11 2 17 5 13 3
-3 4 -12 1 -19z m1002 -40 c10 -27 -13 -82 -32 -75 -16 5 -19 80 -4 89 19 12
27 9 36 -14z m-4981 -6 c2 -7 -3 -12 -12 -12 -9 0 -16 7 -16 16 0 17 22 14 28
-4z m5762 -52 c0 -5 -4 -10 -10 -10 -5 0 -10 5 -10 10 0 6 5 10 10 10 6 0 10
-4 10 -10z m230 -111 c0 -5 -4 -9 -10 -9 -5 0 -10 7 -10 16 0 8 5 12 10 9 6
-3 10 -10 10 -16z m-1970 1 c0 -5 -5 -10 -11 -10 -5 0 -7 5 -4 10 3 6 8 10 11
10 2 0 4 -4 4 -10z m-1470 -29 c14 -27 13 -64 -3 -85 -15 -21 -21 -15 -56 47
-28 51 -27 57 14 57 24 0 37 -6 45 -19z m-665 -101 c8 -26 -1 -40 -26 -40 -22
0 -34 22 -25 45 8 22 44 18 51 -5z m-2681 -6 c10 -26 7 -34 -14 -34 -15 0 -20
7 -20 25 0 28 24 34 34 9z m14 -102 c2 -7 -6 -12 -17 -12 -21 0 -27 11 -14 24
9 9 26 2 31 -12z m112 3 c0 -8 -7 -15 -15 -15 -16 0 -20 12 -8 23 11 12 23 8
23 -8z m6160 -5 c0 -5 -4 -10 -10 -10 -5 0 -10 5 -10 10 0 6 5 10 10 10 6 0
10 -4 10 -10z m140 -30 c-6 -11 -15 -20 -20 -20 -5 0 -14 9 -20 20 -10 18 -8
20 20 20 28 0 30 -2 20 -20z m-5925 -20 c0 -13 -6 -25 -12 -27 -16 -6 -27 21
-19 43 9 23 31 11 31 -16z m6233 -16 c-2 -15 -12 -32 -23 -38 -11 -6 -24 -17
-28 -23 -9 -14 -36 -17 -61 -7 -27 10 -18 21 28 35 28 8 50 22 57 36 17 31 31
29 27 -3z m-128 -14 c0 -5 -7 -10 -16 -10 -8 0 -12 5 -9 10 3 6 10 10 16 10 5
0 9 -4 9 -10z m-2364 -14 c6 -17 -12 -56 -26 -56 -6 0 -10 16 -10 35 0 25 4
35 15 35 9 0 18 -6 21 -14z m144 -5 c0 -4 -3 -11 -7 -14 -8 -9 -34 13 -28 24
6 9 35 1 35 -10z m2400 5 c0 -3 -4 -8 -10 -11 -5 -3 -10 -1 -10 4 0 6 5 11 10
11 6 0 10 -2 10 -4z m-20 -36 c0 -5 -4 -10 -10 -10 -5 0 -10 5 -10 10 0 6 5
10 10 10 6 0 10 -4 10 -10z m-6640 -25 c0 -11 11 -15 40 -15 l40 0 0 -40 c0
-36 -2 -40 -25 -40 -22 0 -25 -4 -25 -36 0 -49 -15 -73 -40 -67 -23 6 -27 23
-5 23 12 0 15 16 15 80 0 79 0 80 -25 80 -22 0 -25 -4 -25 -40 0 -29 -4 -40
-15 -40 -12 0 -15 13 -15 55 l0 55 40 0 c29 0 40 -4 40 -15z m6522 -15 c10 0
27 6 38 12 15 10 22 10 32 0 9 -9 7 -12 -13 -12 -18 0 -29 -8 -37 -25 -15 -33
-28 -32 -47 5 -18 35 -19 48 -3 32 7 -7 20 -12 30 -12z m-202 -21 c55 -12 64
-23 25 -33 -14 -4 -25 -11 -25 -16 0 -18 -46 -11 -65 10 -15 16 -15 22 -5 35
15 18 8 17 70 4z m160 -7 c0 -4 -18 -13 -40 -19 -22 -5 -40 -7 -40 -3 0 3 17
11 38 17 20 6 38 11 40 12 1 0 2 -3 2 -7z m-2430 -62 c0 -5 -6 -10 -14 -10 -8
0 -18 5 -21 10 -3 6 3 10 14 10 12 0 21 -4 21 -10z m-30 -85 c0 -38 -25 -54
-48 -32 -11 12 -12 19 -1 38 25 49 49 46 49 -6z m368 27 c2 -7 -6 -12 -17 -12
-21 0 -27 11 -14 24 9 9 26 2 31 -12z m1852 -22 c0 -5 -2 -10 -4 -10 -3 0 -8
5 -11 10 -3 6 -1 10 4 10 6 0 11 -4 11 -10z m40 6 c0 -11 -19 -15 -25 -6 -3 5
1 10 9 10 9 0 16 -2 16 -4z m-5933 -22 c-3 -3 -12 -4 -19 -1 -8 3 -5 6 6 6 11
1 17 -2 13 -5z m5988 -72 c-8 -8 -25 17 -25 38 0 9 6 6 16 -8 9 -13 13 -26 9
-30z m-2208 23 c1 -5 -1 -16 -5 -23 -12 -18 -42 -4 -42 20 0 14 6 19 22 16 12
-2 23 -7 25 -13z m2433 -45 c0 -5 -18 -10 -40 -10 -22 0 -40 5 -40 10 0 6 18
10 40 10 22 0 40 -4 40 -10z m-155 -34 c8 -7 12 -16 9 -19 -10 -9 -34 4 -34
19 0 18 8 18 25 0z m-40 -16 c-3 -5 -10 -10 -16 -10 -5 0 -9 5 -9 10 0 6 7 10
16 10 8 0 12 -4 9 -10z m-6 -56 c-9 -11 -15 -12 -25 -3 -11 9 -12 15 -3 25 9
11 15 12 25 3 11 -9 12 -15 3 -25z m-2207 -484 c-4 -81 -2 -90 14 -90 14 0 15
-3 6 -12 -10 -10 -17 -10 -32 0 -11 6 -27 12 -35 12 -11 0 -15 12 -17 43 l-1
42 -4 -42 c-7 -72 -23 -48 -23 32 0 87 10 104 60 105 l35 0 -3 -90z m2108 14
c0 -8 -5 -12 -10 -9 -6 4 -8 11 -5 16 9 14 15 11 15 -7z m-317 -20 c3 -4 0
-13 -8 -21 -8 -8 -15 -25 -15 -39 0 -17 -5 -24 -20 -24 -17 0 -20 7 -20 39 0
33 4 40 23 44 12 2 25 5 28 6 3 0 8 -2 12 -5z m293 -91 c-10 -10 -19 5 -10 18
6 11 8 11 12 0 2 -7 1 -15 -2 -18z m-1488 -125 c18 -18 15 -28 -8 -28 -13 0
-20 7 -20 20 0 23 10 26 28 8z m452 -18 c0 -5 -18 -10 -40 -10 -22 0 -40 5
-40 10 0 6 18 10 40 10 22 0 40 -4 40 -10z m-90 -50 c0 -38 -2 -40 -30 -40
-28 0 -30 2 -30 40 0 38 2 40 30 40 28 0 30 -2 30 -40z m-70 -51 c0 -5 -18 -9
-40 -9 -26 0 -40 5 -40 13 0 9 12 11 40 9 22 -2 40 -8 40 -13z m1228 -5 c-4
-37 -32 -54 -54 -32 -15 15 -15 17 5 37 30 30 53 28 49 -5z m-1548 -44 c0 -18
7 -20 80 -20 l80 0 0 -40 c0 -22 -4 -40 -10 -40 -5 0 -10 -18 -10 -40 0 -22 5
-40 10 -40 6 0 10 -9 10 -20 0 -16 -7 -20 -36 -20 -38 0 -74 15 -74 30 0 6 11
10 25 10 22 0 25 4 25 38 l0 39 -53 -5 -52 -4 3 46 c4 41 2 46 -17 46 -24 0
-27 10 -9 28 18 18 28 15 28 -8z m265 -30 c-3 -5 -10 -10 -16 -10 -5 0 -9 5
-9 10 0 6 7 10 16 10 8 0 12 -4 9 -10z m1175 -40 c0 -13 -31 -21 -53 -14 -19
6 -20 7 -3 19 17 13 56 9 56 -5z m-1040 -290 c0 -17 -7 -20 -40 -20 -33 0 -40
3 -40 20 0 17 7 20 40 20 33 0 40 -3 40 -20z"/>
<path d="M4590 4256 c0 -19 5 -38 10 -41 6 -4 10 10 10 34 0 23 -4 41 -10 41
-5 0 -10 -15 -10 -34z"/>
<path d="M4394 4046 c-3 -8 -4 -23 -1 -33 3 -12 5 -9 6 9 1 16 8 28 19 31 16
4 16 5 -1 6 -10 0 -20 -5 -23 -13z"/>
<path d="M4590 3800 c0 -5 5 -10 10 -10 6 0 10 5 10 10 0 6 -4 10 -10 10 -5 0
-10 -4 -10 -10z"/>
<path d="M6510 2760 c0 -5 7 -10 15 -10 8 0 15 5 15 10 0 6 -7 10 -15 10 -8 0
-15 -4 -15 -10z"/>
<path d="M6270 2650 c0 -5 7 -10 15 -10 8 0 15 5 15 10 0 6 -7 10 -15 10 -8 0
-15 -4 -15 -10z"/>
<path d="M6400 2610 c0 -5 5 -10 11 -10 5 0 7 5 4 10 -3 6 -8 10 -11 10 -2 0
-4 -4 -4 -10z"/>
<path d="M6670 3055 c0 -8 5 -15 10 -15 6 0 10 7 10 15 0 8 -4 15 -10 15 -5 0
-10 -7 -10 -15z"/>
<path d="M4515 6849 c-10 -15 3 -25 16 -12 7 7 7 13 1 17 -6 3 -14 1 -17 -5z"/>
<path d="M4426 6835 c4 -8 10 -15 14 -15 4 0 10 7 14 15 4 10 -1 15 -14 15
-13 0 -18 -5 -14 -15z"/>
<path d="M5186 6771 c-4 -5 -2 -12 3 -15 5 -4 12 -2 15 3 4 5 2 12 -3 15 -5 4
-12 2 -15 -3z"/>
<path d="M3265 6760 c3 -5 8 -10 11 -10 2 0 4 5 4 10 0 6 -5 10 -11 10 -5 0
-7 -4 -4 -10z"/>
<path d="M2900 6706 c0 -8 -3 -16 -7 -19 -5 -2 -2 -2 5 0 8 1 20 3 28 3 8 0
14 7 14 15 0 8 -9 15 -20 15 -11 0 -20 -6 -20 -14z"/>
<path d="M2053 6678 c2 -7 10 -12 16 -10 6 1 11 -3 11 -9 0 -8 5 -8 15 1 23
19 18 30 -16 30 -20 0 -29 -4 -26 -12z"/>
<path d="M3612 6673 c9 -10 18 -27 22 -38 3 -12 15 -21 27 -22 19 -2 20 0 6
15 -8 9 -18 27 -21 40 -5 13 -15 22 -28 22 -19 0 -20 -2 -6 -17z"/>
<path d="M3760 6670 c0 -18 3 -19 20 -10 11 6 20 15 20 20 0 6 -9 10 -20 10
-13 0 -20 -7 -20 -20z"/>
<path d="M4458 6683 c7 -3 16 -2 19 1 4 3 -2 6 -13 5 -11 0 -14 -3 -6 -6z"/>
<path d="M5223 6650 c0 -25 2 -35 4 -22 2 12 2 32 0 45 -2 12 -4 2 -4 -23z"/>
<path d="M2350 6641 c-15 -28 -13 -31 20 -31 34 0 40 19 10 37 -16 11 -21 10
-30 -6z"/>
<path d="M2445 6614 c-20 -16 -19 -16 4 -9 15 5 26 3 31 -6 7 -10 14 -10 32
-2 23 12 23 12 1 12 -12 1 -25 6 -28 11 -8 13 -16 12 -40 -6z"/>
<path d="M3862 6594 c9 -9 21 -13 27 -10 20 13 11 26 -16 26 -25 0 -26 -1 -11
-16z"/>
<path d="M4335 6580 c-4 -7 -3 -16 3 -22 14 -14 47 -6 47 12 0 18 -40 26 -50
10z"/>
<path d="M2080 6540 c0 -5 6 -10 14 -10 8 0 16 -6 19 -12 2 -7 8 -10 12 -5 5
4 0 14 -11 22 -23 17 -34 19 -34 5z"/>
<path d="M5040 6484 c0 -8 5 -12 10 -9 6 4 8 11 5 16 -9 14 -15 11 -15 -7z"/>
<path d="M1420 5775 c0 -8 5 -15 10 -15 6 0 10 7 10 15 0 8 -4 15 -10 15 -5 0
-10 -7 -10 -15z"/>
<path d="M1360 5725 c0 -9 5 -15 11 -13 6 2 11 8 11 13 0 5 -5 11 -11 13 -6 2
-11 -4 -11 -13z"/>
<path d="M1520 5638 c0 -4 4 -8 9 -8 6 0 12 4 15 8 3 5 -1 9 -9 9 -8 0 -15 -4
-15 -9z"/>
<path d="M1070 5020 c0 -5 5 -10 10 -10 6 0 10 5 10 10 0 6 -4 10 -10 10 -5 0
-10 -4 -10 -10z"/>
<path d="M4775 5020 c-3 -5 1 -10 9 -10 9 0 16 5 16 10 0 6 -4 10 -9 10 -6 0
-13 -4 -16 -10z"/>
<path d="M5150 4810 c0 -14 26 -23 41 -15 8 6 7 10 -2 16 -19 12 -39 11 -39
-1z"/>
<path d="M5257 4803 c-13 -12 -7 -33 8 -33 8 0 15 9 15 20 0 20 -11 26 -23 13z"/>
<path d="M1040 4359 c0 -5 5 -7 10 -4 6 3 10 8 10 11 0 2 -4 4 -10 4 -5 0 -10
-5 -10 -11z"/>
<path d="M5470 3850 c0 -22 5 -40 10 -40 6 0 10 18 10 40 0 22 -4 40 -10 40
-5 0 -10 -18 -10 -40z"/>
<path d="M400 3720 c0 -26 3 -31 21 -28 21 3 48 32 39 42 -3 2 -17 7 -33 11
-25 7 -27 5 -27 -25z"/>
<path d="M5040 3623 c0 -22 2 -25 10 -13 13 20 13 40 0 40 -5 0 -10 -12 -10
-27z"/>
<path d="M5750 3608 c0 -19 18 -43 25 -36 9 9 -4 48 -16 48 -5 0 -9 -6 -9 -12z"/>
<path d="M5813 3558 c2 -7 14 -13 27 -13 13 0 25 6 28 13 2 8 -7 12 -28 12
-21 0 -30 -4 -27 -12z"/>
<path d="M6225 3537 c-9 -21 10 -47 34 -47 15 1 15 2 0 13 -9 7 -19 21 -21 32
-5 18 -6 19 -13 2z"/>
<path d="M5760 3506 c0 -9 7 -16 16 -16 9 0 14 5 12 12 -6 18 -28 21 -28 4z"/>
<path d="M5897 3513 c-12 -11 -8 -23 8 -23 8 0 15 7 15 15 0 16 -12 20 -23 8z"/>
<path d="M5380 3500 c0 -5 5 -10 10 -10 6 0 10 5 10 10 0 6 -4 10 -10 10 -5 0
-10 -4 -10 -10z"/>
<path d="M5500 3500 c0 -5 5 -10 10 -10 6 0 10 5 10 10 0 6 -4 10 -10 10 -5 0
-10 -4 -10 -10z"/>
<path d="M4899 3479 c10 -29 29 -36 37 -14 8 19 6 20 -23 29 -20 7 -22 5 -14
-15z"/>
<path d="M5012 3478 c6 -18 28 -21 28 -4 0 9 -7 16 -16 16 -9 0 -14 -5 -12
-12z"/>
<path d="M5375 3450 c3 -5 8 -10 11 -10 2 0 4 5 4 10 0 6 -5 10 -11 10 -5 0
-7 -4 -4 -10z"/>
<path d="M5511 3433 c-8 -16 -8 -22 3 -26 24 -9 37 7 22 28 -13 18 -14 18 -25
-2z"/>
<path d="M6800 3416 c0 -7 6 -19 14 -25 8 -7 17 -23 20 -36 4 -17 13 -25 28
-25 19 0 20 1 6 18 -9 9 -19 27 -22 40 -6 18 -3 22 13 22 12 0 21 5 21 10 0 6
-18 10 -40 10 -27 0 -40 -4 -40 -14z"/>
<path d="M5910 3385 c0 -24 1 -24 20 -8 11 10 20 21 20 25 0 5 -9 8 -20 8 -15
0 -20 -7 -20 -25z"/>
<path d="M6720 3370 c0 -22 5 -40 10 -40 6 0 10 18 10 40 0 22 -4 40 -10 40
-5 0 -10 -18 -10 -40z"/>
<path d="M4740 3304 c0 -31 23 -28 28 4 2 15 -2 22 -12 22 -11 0 -16 -9 -16
-26z"/>
<path d="M700 3130 c0 -22 5 -40 10 -40 6 0 10 18 10 40 0 22 -4 40 -10 40 -5
0 -10 -18 -10 -40z"/>
<path d="M720 2946 c0 -9 5 -16 10 -16 6 0 10 4 10 9 0 6 -4 13 -10 16 -5 3
-10 -1 -10 -9z"/>
<path d="M80 2860 c0 -5 18 -10 40 -10 22 0 40 5 40 10 0 6 -18 10 -40 10 -22
0 -40 -4 -40 -10z"/>
<path d="M540 2810 c0 -22 5 -40 10 -40 6 0 10 18 10 40 0 22 -4 40 -10 40 -5
0 -10 -18 -10 -40z"/>
<path d="M80 2730 c0 -22 5 -40 10 -40 6 0 10 18 10 40 0 22 -4 40 -10 40 -5
0 -10 -18 -10 -40z"/>
<path d="M220 2730 c0 -22 5 -40 10 -40 6 0 10 -18 10 -40 0 -22 5 -40 10 -40
6 0 10 -18 10 -40 0 -33 3 -40 20 -40 17 0 20 -7 20 -40 0 -22 4 -40 9 -40 5
0 11 -6 13 -14 2 -11 8 -11 28 -3 l25 11 -27 4 c-25 3 -28 7 -28 43 0 21 -4
39 -10 39 -6 0 -10 33 -10 80 l0 80 -30 0 c-28 0 -30 2 -30 40 0 22 -4 40 -10
40 -5 0 -10 -18 -10 -40z"/>
<path d="M80 2620 c0 -5 -12 -10 -26 -10 l-25 0 22 -40 c21 -37 26 -40 66 -40
24 0 43 -4 43 -10 0 -5 18 -10 40 -10 22 0 40 5 40 10 0 6 -7 10 -15 10 -11 0
-15 11 -15 40 0 36 -2 40 -25 40 -14 0 -25 5 -25 10 0 6 -18 10 -40 10 -22 0
-40 -4 -40 -10z"/>
<path d="M357 2603 c-4 -3 -7 -21 -7 -40 0 -29 3 -33 25 -33 14 0 25 -4 25
-10 0 -5 18 -10 40 -10 36 0 40 3 40 24 0 15 -7 27 -19 31 -10 3 -26 14 -36
25 -18 20 -55 27 -68 13z"/>
<path d="M906 2389 c-9 -93 -8 -99 14 -99 22 0 23 6 14 99 -4 33 -10 61 -14
61 -4 0 -10 -28 -14 -61z"/>
<path d="M820 2330 c0 -33 3 -40 20 -40 17 0 20 7 20 40 0 33 -3 40 -20 40
-17 0 -20 -7 -20 -40z"/>
<path d="M777 2313 c-12 -11 -8 -23 8 -23 8 0 15 7 15 15 0 16 -12 20 -23 8z"/>
<path d="M700 2250 c0 -22 5 -40 10 -40 6 0 10 18 10 40 0 22 -4 40 -10 40 -5
0 -10 -18 -10 -40z"/>
<path d="M140 2090 c0 -33 3 -40 20 -40 19 0 20 -7 20 -120 0 -94 3 -120 13
-120 11 0 15 29 20 117 4 66 11 119 17 121 5 2 10 21 10 43 l0 39 -50 0 -50 0
0 -40z"/>
<path d="M100 1770 c0 -22 4 -40 9 -40 5 0 11 18 13 40 2 28 0 40 -9 40 -8 0
-13 -14 -13 -40z"/>
<path d="M260 1750 c-10 -18 -8 -20 20 -20 28 0 30 2 20 20 -6 11 -15 20 -20
20 -5 0 -14 -9 -20 -20z"/>
<path d="M160 1740 c0 -5 18 -10 40 -10 22 0 40 5 40 10 0 6 -18 10 -40 10
-22 0 -40 -4 -40 -10z"/>
<path d="M178 1663 c12 -2 32 -2 45 0 12 2 2 4 -23 4 -25 0 -35 -2 -22 -4z"/>
<path d="M5680 625 c0 -8 7 -15 15 -15 8 0 15 7 15 15 0 8 -7 15 -15 15 -8 0
-15 -7 -15 -15z"/>
<path d="M5832 565 c0 -16 2 -22 5 -12 2 9 2 23 0 30 -3 6 -5 -1 -5 -18z"/>
</g>
</svg>
